<?xml version="1.0"?>
<svg xmlns="http://www.w3.org/2000/svg" xmlns:xlink="http://www.w3.org/1999/xlink" id="Gradient" viewBox="0 0 512 512" width="512" height="512"><defs><linearGradient id="linear-gradient" x1="256" y1="496" x2="256" y2="16" gradientUnits="userSpaceOnUse"><stop offset="0" stop-color="#27c1e6"/><stop offset="0.5" stop-color="#c275e9"/><stop offset="1" stop-color="#f2515d"/></linearGradient></defs><path d="M392,16H88a8,8,0,0,0-8,8V278.131A23.943,23.943,0,0,0,72,296V472a24.028,24.028,0,0,0,24,24H416a24.028,24.028,0,0,0,24-24V344a23.943,23.943,0,0,0-8-17.869V40a8,8,0,0,0-8-8H400V24A8,8,0,0,0,392,16ZM96,32H384V320H311.494a7.978,7.978,0,0,1-6.146-2.878l-30.405-36.487A23.937,23.937,0,0,0,256.506,272H96ZM424,472a8.009,8.009,0,0,1-8,8H96a8.009,8.009,0,0,1-8-8V296a8.009,8.009,0,0,1,8-8H256.506a7.978,7.978,0,0,1,6.146,2.878l30.405,36.487A23.937,23.937,0,0,0,311.494,336H416a8.009,8.009,0,0,1,8,8ZM416,48V320H400V48ZM368,248V56a8,8,0,0,0-8-8H120a8,8,0,0,0-8,8V248a8,8,0,0,0,8,8H360A8,8,0,0,0,368,248Zm-16-8H128V64H352ZM240,384v16h24a8,8,0,0,1,8,8v32a8,8,0,0,1-8,8H232a8,8,0,0,1,0-16h24V416H232a8,8,0,0,1-8-8V376a8,8,0,0,1,8-8h32a8,8,0,0,1,0,16Zm-40-16H168a8,8,0,0,0-8,8v64a8,8,0,0,0,16,0V416h24a8,8,0,0,0,8-8V376A8,8,0,0,0,200,368Zm-8,32H176V384h16Zm120-32H296a8,8,0,0,0-8,8v64a8,8,0,0,0,8,8h16a24.028,24.028,0,0,0,24-24V392A24.028,24.028,0,0,0,312,368Zm8,56a8.009,8.009,0,0,1-8,8h-8V384h8a8.009,8.009,0,0,1,8,8ZM160,184a8,8,0,0,0,4.751,7.311l72,32a8,8,0,0,0,6.5,0l72-32a8,8,0,0,0,0-14.622L295.7,168l19.551-8.689a8,8,0,0,0,0-14.622L295.7,136l19.551-8.689a8,8,0,0,0,0-14.622l-72-32a8,8,0,0,0-6.5,0l-72,32a8,8,0,0,0,0,14.622L184.3,136l-19.551,8.689a8,8,0,0,0,0,14.622L184.3,168l-19.551,8.689A8,8,0,0,0,160,184Zm80-87.245L292.3,120,240,143.245,187.7,120Zm-3.249,62.556a8,8,0,0,0,6.5,0L276,144.754,292.3,152,240,175.245,187.7,152l16.3-7.246Zm0,32a8,8,0,0,0,6.5,0L276,176.754,292.3,184,240,207.245,187.7,184l16.3-7.246Z" style="fill:url(#linear-gradient)"/></svg>
