<svg height="512pt" viewBox="0 0 512 512" width="512pt" xmlns="http://www.w3.org/2000/svg"><path d="m8 72h496v336h-496zm0 0" fill="#dce775"/><path d="m8 8h496v64h-496zm0 0" fill="#cfd8dc"/><path d="m152 200h304v288h-304zm0 0" fill="#ffe082"/><path d="m152 136h304v64h-304zm0 0" fill="#cfd8dc"/><path d="m328 304h176v200h-176zm0 0" fill="#ff8a65"/><path d="m328 240h176v64h-176zm0 0" fill="#cfd8dc"/><g fill="#fff"><path d="m32 32h16v16h-16zm0 0"/><path d="m64 32h16v16h-16zm0 0"/><path d="m96 32h16v16h-16zm0 0"/><path d="m32 96h16v112h-16zm0 0"/><path d="m64 96h16v80h-16zm0 0"/><path d="m96 96h16v48h-16zm0 0"/><path d="m352 264h16v16h-16zm0 0"/><path d="m384 264h16v16h-16zm0 0"/><path d="m176 160h16v16h-16zm0 0"/><path d="m208 160h16v16h-16zm0 0"/><path d="m240 160h16v16h-16zm0 0"/></g><path d="m0 0v416h144v80h176v16h192v-512zm496 296h-160v-48h160zm-48-104h-288v-48h288zm48 40h-32v-104h-320v112h16v-32h288v24h-128v104h16v-24h160v184h-160v-48h-16v32h-160v-128h-16v48h-128v-320h480zm0-168h-480v-48h480zm0 0"/><path d="m160 32h320v16h-320zm0 0"/><path d="m189.65625 226.34375-11.3125 11.3125 26.34375 26.34375h-140.6875v16h179.3125zm0 0"/><path d="m125.65625 354.34375-26.34375-26.34375h140.6875v-16h-179.3125l53.65625 53.65625zm0 0"/><path d="m240 376h179.3125l-53.65625-53.65625-11.3125 11.3125 26.34375 26.34375h-140.6875zm0 0"/><path d="m290.34375 461.65625 11.3125-11.3125-26.34375-26.34375h140.6875v-16h-179.3125zm0 0"/></svg>