<?xml version="1.0" encoding="iso-8859-1"?>
<!-- Generator: Adobe Illustrator 19.0.0, SVG Export Plug-In . SVG Version: 6.00 Build 0)  -->
<svg version="1.1" id="Capa_1" xmlns="http://www.w3.org/2000/svg" xmlns:xlink="http://www.w3.org/1999/xlink" x="0px" y="0px"
	 viewBox="0 0 512 512" style="enable-background:new 0 0 512 512;" xml:space="preserve">
<circle style="fill:#DD352E;" cx="255.993" cy="256" r="59.733"/>
<circle style="fill:#DC691D;" cx="418.109" cy="110.933" r="25.6"/>
<circle style="fill:#EBBA16;" cx="102.393" cy="401.067" r="25.6"/>
<g>
	<path style="fill:#4D007E;" d="M255.993,512c-62.208,0-110.933-112.452-110.933-256S193.785,0,255.993,0
		s110.933,112.452,110.933,256S318.201,512,255.993,512z M255.993,17.067c-50.884,0-93.867,109.414-93.867,238.933
		s42.982,238.933,93.867,238.933S349.86,385.519,349.86,256S306.877,17.067,255.993,17.067z"/>
	<path style="fill:#4D007E;" d="M398.406,410.206c-6.699,0-13.722-0.316-21.043-0.939c-51.49-4.412-112.708-23.859-172.373-54.758
		C145.316,323.61,94.107,284.843,60.793,245.333c-34.987-41.481-46.396-79.497-32.119-107.051
		c14.268-27.554,51.883-40.166,105.967-35.55c51.49,4.412,112.708,23.859,172.373,54.758
		c59.674,30.899,110.882,69.675,144.196,109.175c34.987,41.481,46.396,79.497,32.119,107.051
		C470.99,397.534,441.192,410.206,398.406,410.206z M113.717,118.869c-35.721,0-60.74,9.6-69.888,27.264
		c-10.726,20.719,0.213,52.864,30.012,88.201c31.906,37.837,81.271,75.127,138.999,105.02l0,0
		c57.728,29.892,116.676,48.683,165.982,52.907c46.046,3.942,78.626-5.675,89.353-26.394c10.726-20.719-0.213-52.864-30.012-88.201
		c-31.906-37.837-81.271-75.127-138.999-105.02s-116.676-48.683-165.982-52.907C126.389,119.159,119.895,118.869,113.717,118.869z"
		/>
	<path style="fill:#4D007E;" d="M255.993,324.267c-37.641,0-68.267-30.626-68.267-68.267s30.626-68.267,68.267-68.267
		S324.26,218.359,324.26,256S293.642,324.267,255.993,324.267z M255.993,204.8c-28.228,0-51.2,22.963-51.2,51.2
		s22.972,51.2,51.2,51.2c28.228,0,51.2-22.963,51.2-51.2S284.23,204.8,255.993,204.8z"/>
	<path style="fill:#4D007E;" d="M418.126,145.067c-18.825,0-34.133-15.309-34.133-34.133S399.302,76.8,418.126,76.8
		c18.825,0,34.133,15.309,34.133,34.133S436.951,145.067,418.126,145.067z M418.126,93.867c-9.412,0-17.067,7.654-17.067,17.067
		S408.714,128,418.126,128c9.412,0,17.067-7.654,17.067-17.067S427.539,93.867,418.126,93.867z"/>
	<path style="fill:#4D007E;" d="M102.393,435.2c-18.825,0-34.133-15.309-34.133-34.133c0-18.825,15.309-34.133,34.133-34.133
		s34.133,15.309,34.133,34.133C136.526,419.891,121.218,435.2,102.393,435.2z M102.393,384c-9.412,0-17.067,7.654-17.067,17.067
		c0,9.412,7.654,17.067,17.067,17.067s17.067-7.654,17.067-17.067C119.46,391.654,111.805,384,102.393,384z"/>
	<path style="fill:#4D007E;" d="M119.451,410.249v-9.754c-0.299-9.148-7.834-16.495-17.058-16.495
		c-8.448,0-15.667,6.366-16.802,14.805l-1.263,9.438l-9.25-2.295c-22.63-5.615-38.246-16.461-46.413-32.239
		c-14.268-27.554-2.859-65.57,32.128-107.042c33.314-39.501,84.531-78.276,144.196-109.175
		c65.442-33.886,133.734-54.144,187.366-55.569l8.977-0.239l-0.264,9.719c0.247,9.19,7.808,16.597,17.058,16.597
		c7.945,0,14.754-5.427,16.572-13.193l2.142-9.19l8.934,3.055c17.92,6.127,30.549,16.094,37.555,29.619l0,0
		c14.268,27.554,2.859,65.579-32.119,107.051c-33.314,39.501-84.523,78.276-144.196,109.175
		c-62.319,32.265-125.705,51.866-178.492,55.168L119.451,410.249z M102.393,366.933c15.693,0,28.945,10.65,32.922,25.097
		c48.375-4.557,107.546-23.526,163.84-52.676c57.728-29.892,107.093-67.191,139-105.02c29.798-35.337,40.738-67.482,30.012-88.201
		l0,0c-3.951-7.629-10.803-13.764-20.412-18.295c-5.922,10.479-17.067,17.229-29.628,17.229c-15.932,0-29.346-10.965-33.092-25.745
		c-49.92,3.012-112.128,22.221-172.203,53.325c-57.728,29.892-107.093,67.191-138.999,105.02
		c-29.798,35.337-40.738,67.482-30.012,88.201c4.907,9.481,14.157,16.606,27.554,21.222
		C76.759,375.125,88.782,366.933,102.393,366.933z"/>
	<path style="fill:#4D007E;" d="M255.993,290.133c-18.825,0-34.133-15.309-34.133-34.133s15.309-34.133,34.133-34.133
		c4.71,0,8.533,3.823,8.533,8.533s-3.823,8.533-8.533,8.533c-9.412,0-17.067,7.654-17.067,17.067
		c0,9.412,7.654,17.067,17.067,17.067S273.06,265.412,273.06,256c0-4.71,3.823-8.533,8.533-8.533c4.71,0,8.533,3.823,8.533,8.533
		C290.126,274.825,274.818,290.133,255.993,290.133z"/>
</g>
<g>
</g>
<g>
</g>
<g>
</g>
<g>
</g>
<g>
</g>
<g>
</g>
<g>
</g>
<g>
</g>
<g>
</g>
<g>
</g>
<g>
</g>
<g>
</g>
<g>
</g>
<g>
</g>
<g>
</g>
</svg>
